<?xml version="1.0" encoding="UTF-8" standalone="no"?>
<!-- Generator: Adobe Illustrator 16.0.0, SVG Export Plug-In . SVG Version: 6.00 Build 0) -->
<svg id="Layer_1" xmlns:rdf="http://www.w3.org/1999/02/22-rdf-syntax-ns#" style="enable-background:new 0 0 538.584 538.583" xmlns="http://www.w3.org/2000/svg" xml:space="preserve" height="538.58px" viewBox="0 0 538.584 538.583" width="538.58px" version="1.1" y="0px" x="0px" xmlns:cc="http://creativecommons.org/ns#" xmlns:dc="http://purl.org/dc/elements/1.1/"><metadata id="metadata51"><rdf:RDF><cc:Work rdf:about=""><dc:format>image/svg+xml</dc:format><dc:type rdf:resource="http://purl.org/dc/dcmitype/StillImage"/><dc:title/></cc:Work></rdf:RDF></metadata><path id="path3" fill="none" d="m0 0h538.58v538.58h-538.58v-538.58z"/><path id="path5" fill="#2062AF" d="m405.5 467.45l-136.21 36.676-136.21-36.676-31.432-340.52h335.29l-31.44 340.52z"/><path id="path7" fill="#3C9CD7" d="m269.29 154.51v320.37l0.308 0.084 110.23-29.682 25.443-290.77h-135.98z"/><path id="path9" d="m191.98 76.899v-20.268h29.571v-22.178h-51.749v62.684h51.749v-20.238h-29.57zm82.77-20.268h20.674v-22.178h-51.754v22.178c6.924 6.924 10.535 10.238 20.549 20.252-5.854 0-20.549 0.021-20.549 0.02v20.234h51.754v-20.238l-20.67-20.268zm73.35 0h20.673v-22.178h-51.75v22.178c6.924 6.924 10.537 10.238 20.551 20.252-5.852 0-20.551 0.021-20.551 0.02v20.234h51.757v-20.238l-20.68-20.268z"/><path id="path11" fill="#fff" d="m269.17 239.66l-97.49 40.602 3.233 40.199 94.257-40.301 100.26-42.868 4.157-41.122-104.42 43.49z"/><linearGradient id="SVGID_1_" y2="1419.1" gradientUnits="userSpaceOnUse" x2="-825.51" gradientTransform="matrix(1 0 0 -1 1045.9 1658.8)" y1="1338.3" x1="-825.51"><stop id="stop14" stop-color="#D1D3D4" stop-opacity="0" offset=".387"/><stop id="stop16" stop-color="#D1D3D4" offset="1"/></linearGradient><path id="path18" fill="url(#SVGID_1_)" d="m171.68 280.26l3.233 40.199 94.257-40.301v-40.5l-97.49 40.6z"/><linearGradient id="SVGID_2_" y2="1462.6" gradientUnits="userSpaceOnUse" x2="-724.55" gradientTransform="matrix(1 0 0 -1 1045.9 1658.8)" y1="1378.6" x1="-724.55"><stop id="stop21" stop-color="#D1D3D4" stop-opacity="0" offset=".387"/><stop id="stop23" stop-color="#D1D3D4" offset="1"/></linearGradient><path id="path25" fill="url(#SVGID_2_)" d="m373.59 196.17l-104.42 43.489v40.5l100.26-42.868 4.16-41.12z"/><linearGradient id="SVGID_3_" y2="1302.3" gradientUnits="userSpaceOnUse" x2="-680.04" gradientTransform="matrix(1 0 0 -1 1045.9 1658.8)" y1="1302.3" x1="-874.1"><stop id="stop28" stop-color="#E8E7E5" offset="0"/><stop id="stop30" stop-color="#fff" offset="1"/></linearGradient><path id="path32" fill="url(#SVGID_3_)" d="m171.83 280.26l3.234 40.199 144.62 0.461-3.235 53.598-47.59 13.398-45.748-11.551-2.772-33.268h-42.508l5.545 64.225 85.945 25.412 85.479-24.951 11.09-127.52h-194.04z"/><g id="g34" opacity=".05"><path id="path36" d="m269.17 280.26h-97.49l3.233 40.199 94.257 0.301v-40.5zm0 107.53l-0.462 0.129-45.742-11.551-2.772-33.268h-42.507l5.544 64.225 85.939 25.412v-44.94z"/></g><linearGradient id="SVGID_4_" y2="1442" gradientUnits="userSpaceOnUse" x2="-672.34" gradientTransform="matrix(1 0 0 -1 1045.9 1658.8)" y1="1442" x1="-883.03"><stop id="stop39" stop-color="#E8E7E5" offset="0"/><stop id="stop41" stop-color="#fff" offset="1"/></linearGradient><path id="path43" fill="url(#SVGID_4_)" d="m162.9 196.17h210.69l-4.157 41.122h-201.45l-5.08-41.12z"/><path id="path45" opacity=".05" style="enable-background:new" d="m269.17 196.17h-106.27l5.082 41.122h101.19v-41.12z"/></svg>
