<?xml version="1.0" encoding="UTF-8" standalone="no"?>
<svg
   xmlns:dc="http://purl.org/dc/elements/1.1/"
   xmlns:cc="http://creativecommons.org/ns#"
   xmlns:rdf="http://www.w3.org/1999/02/22-rdf-syntax-ns#"
   xmlns:svg="http://www.w3.org/2000/svg"
   xmlns="http://www.w3.org/2000/svg"
   xmlns:xlink="http://www.w3.org/1999/xlink"
   xmlns:sodipodi="http://sodipodi.sourceforge.net/DTD/sodipodi-0.dtd"
   xmlns:inkscape="http://www.inkscape.org/namespaces/inkscape"
   height="249"
   width="542"
   version="1.1"
   preserveAspectRatio="xMidYMid"
   viewBox="0 0 542 249"
   id="svg4351"
   inkscape:version="0.91 r13725"
   sodipodi:docname="jekyll.svg">
  <metadata
     id="metadata4403">
    <rdf:RDF>
      <cc:Work
         rdf:about="">
        <dc:format>image/svg+xml</dc:format>
        <dc:type
           rdf:resource="http://purl.org/dc/dcmitype/StillImage" />
      </cc:Work>
    </rdf:RDF>
  </metadata>
  <sodipodi:namedview
     pagecolor="#ffffff"
     bordercolor="#666666"
     borderopacity="1"
     objecttolerance="10"
     gridtolerance="10"
     guidetolerance="10"
     inkscape:pageopacity="0"
     inkscape:pageshadow="2"
     inkscape:window-width="1841"
     inkscape:window-height="1011"
     id="namedview4401"
     showgrid="false"
     inkscape:zoom="2.3265683"
     inkscape:cx="271"
     inkscape:cy="124.5"
     inkscape:window-x="580"
     inkscape:window-y="197"
     inkscape:window-maximized="0"
     inkscape:current-layer="svg4351" />
  <defs
     id="defs4353">
    <linearGradient
       id="linearGradient-1"
       y2="85.818"
       gradientUnits="userSpaceOnUse"
       x2="106.32"
       gradientTransform="scale(.74470 1.3428)"
       y1="71.07"
       x1="37.163">
      <stop
         stop-color="#919191"
         offset="0"
         id="stop4356" />
      <stop
         stop-color="#fff"
         offset="1"
         id="stop4358" />
    </linearGradient>
    <linearGradient
       id="linearGradient-2"
       y2="109.63"
       gradientUnits="userSpaceOnUse"
       x2="73.691"
       gradientTransform="scale(.78007 1.2819)"
       y1="100.28"
       x1="33.756">
      <stop
         stop-color="#900"
         offset="0"
         id="stop4361" />
      <stop
         stop-color="#E80000"
         offset="1"
         id="stop4363" />
    </linearGradient>
    <linearGradient
       id="linearGradient-3"
       y2="60.941"
       xlink:href="#linearGradient-1"
       gradientUnits="userSpaceOnUse"
       x2="133.52"
       gradientTransform="matrix(1.6317 0 0 .61285 20 20)"
       y1="327.56"
       x1="133.52">
      <stop
         stop-color="#bcbcbe"
         offset="0"
         id="stop4366" />
      <stop
         stop-color="#fff"
         offset="1"
         id="stop4368" />
    </linearGradient>
    <linearGradient
       id="linearGradient4376"
       y2="85.818"
       xlink:href="#linearGradient-1"
       gradientUnits="userSpaceOnUse"
       x2="106.32"
       gradientTransform="scale(.74470 1.3428)"
       y1="71.07"
       x1="37.163" />
  </defs>
  <rect
     opacity=".3"
     height="249"
     width="542"
     y="5.6843e-14"
     x="1"
     fill="#333"
     id="rect4371"
     style="opacity:1" />
  <g
     transform="translate(414.23 20)"
     id="g4373">
    <path
       opacity=".1"
       d="m65.073 4.2916c-0.09981 0.39922-0.09981 0.79844 0 1.1977 0 0 1.2975 8.4834-0.19961 12.276l-61.48 159.98c-4.3914 11.777 1.4971 24.851 13.274 29.343 11.777 4.4912 24.851-1.2975 29.542-12.975l61.48-159.99c1.1977-3.094 8.0842-9.1821 8.0842-9.1821 0.29941-0.29942 0.59883-0.59883 0.79844-0.89825v-0.0998c0-0.0998 0.0998-0.0998 0.0998-0.19961 1.6-4.088-8.68-11.873-22.853-17.362-14.173-5.4898-27.047-6.5876-28.644-2.3958 0 0-0.0998 0.099805-0.0998 0.29942z"
       id="path4375" />
    <path
       fill="url(#linearGradient4376)"
       d="m63.276 2.8943c-0.0998 0.39922-0.0998 0.79844 0 1.1977 0 0 1.2975 8.4834-0.19961 12.276l-61.479 159.99c-4.3914 11.777 1.4971 24.851 13.274 29.343 11.777 4.4912 24.851-1.2975 29.542-12.975l61.48-159.99c1.1977-3.094 8.0842-9.1821 8.0842-9.1821 0.29941-0.29942 0.59883-0.59883 0.79844-0.89825v-0.0998c0-0.0998 0.0998-0.0998 0.0998-0.19961 1.5969-4.092-8.683-11.877-22.855-17.366-14.172-5.4893-27.047-6.5871-28.644-2.3953 0 0.099805 0 0.19961-0.09981 0.29942z"
       id="path4377" />
    <path
       fill="url(#linearGradient-2)"
       d="m82.639 75.253-44.414 115.38c-3.293 8.28-12.775 12.57-21.258 9.28-8.4836-3.29-12.975-12.98-9.8808-21.26l28.345-73.756s3.4932-5.6889 10.48-9.7809c6.9864-4.092 12.675-3.1938 20.36-6.5871 7.7848-3.3934 16.368-13.274 16.368-13.274z"
       id="path4379" />
    <path
       fill="#333"
       d="m104.18 19.019c0.88-2.309-5.487-6.916-14.226-10.29-8.74-3.3742-16.542-4.2382-17.426-1.9298-0.885 2.3085 5.483 6.9148 14.222 10.29 8.7395 3.3743 16.541 4.2383 17.426 1.9298z"
       id="path4381" />
    <path
       opacity=".3"
       fill="#fff"
       d="m62.863 4.0805s1.289 8.4595-0.1983 12.241l-61.079 159.54c-4.3627 11.744 1.4873 24.781 13.187 29.26 1.9831 0.79619 4.0653 1.2938 6.1475 1.3933-7.833-5.9714-11.204-16.521-7.6347-26.274l59.888-156.35s-8.2297-7.6633-10.312-19.805z"
       id="path4383" />
    <g
       opacity=".5"
       fill="#fff"
       transform="translate(25.78 104.5)"
       id="g4385">
      <ellipse
         cy="2.4881"
         cx="17.451"
         rx="1.7847"
         ry="1.7914"
         id="ellipse4387" />
      <ellipse
         cy="15.327"
         cx="29.052"
         rx="2.6771"
         ry="2.6871"
         id="ellipse4389" />
      <ellipse
         cy="30.653"
         cx="11.303"
         rx="5.0568"
         ry="5.0757"
         id="ellipse4391" />
      <ellipse
         cy="40.009"
         cx="3.1729"
         rx="2.6771"
         ry="2.6871"
         id="ellipse4393" />
      <ellipse
         cy="59.913"
         cx="13.782"
         rx="1.7847"
         ry="1.7914"
         id="ellipse4395" />
    </g>
  </g>
  <path
     opacity=".1"
     d="m140.46 117.13c2.6947 2.1895 7.5852 0.89571 10.879-2.6872 3.4932-3.7819 3.9922-8.6586 1.2975-10.848-2.6947-2.1895-7.5852-0.89571-10.879 2.8862-3.4932 3.7819-4.092 8.559-1.2975 10.649zm-8.0842 7.0662c-0.69864 0-1.9961 1.2938-0.89825 1.7914 1.4971 0.49762 2.1957 1.7914 2.1957 3.5828-1.2975 7.4643-10.579 15.924-14.172 18.81-0.89825 0.89572 0.39922 2.8862 1.2975 2.1895 1.9961-1.5924 6.1879-4.8767 9.5813-9.2557-5.5891 12.44-16.568 28.563-20.759 34.236-16.368 22.592-41.219 43.392-58.286 43.392-13.673 0-25.251-9.2557-27.746-22.791-0.19961-1.4928-2.1957-1.7914-1.7965 0.19905 3.094 18.611 17.466 25.876 34.832 25.876 19.063 0 41.419-13.734 53.795-27.867 19.961-22.791 32.836-49.065 29.442-63.894-1.3973-5.4738-5.2897-6.3695-7.4854-6.27zm122.66 49.662c5.2897-1.2938 9.5813-4.18 9.5813-8.7581 0-0.49762-0.89824-0.49762-0.89824 0 0 2.6872-3.094 4.9762-6.5871 5.4738-8.184 1.2938-24.352-8.2605-31.938-18.113 8.184 3.0852 24.851-1.3933 32.736-7.0662 7.2858-5.2748 10.18-11.047 10.679-15.725 0.89825-7.7629-7.5852-12.341-19.462-7.7629-7.5852 3.0852-16.667 9.7533-26.149 22.293 9.9805-16.421 29.642-43.293 48.904-60.411 23.454-20.8 37.028-16.82 15.969 5.2748-8.683 9.0567-25.051 20.8-36.329 25.876-3.4932 1.4929-1.7965 3.4833 0.69863 2.3886 11.977-5.2748 27.945-16.123 37.627-25.18 28.544-27.369 4.6908-47.97-26.848-19.009-21.458 19.706-35.431 40.307-47.607 67.079-4.1918 5.0757-7.2858 9.2557-11.078 12.44-0.49902 0.39809-0.79844 0.79619-1.0979 1.1943-10.48 8.9572-26.947 21.099-37.227 21.199-7.2858 0.19905-10.38-5.2748-9.0823-12.341 1.9961-11.047 13.474-24.085 23.255-28.563 12.675-5.7724 20.161 5.4738 3.4932 14.431-6.3875 3.2843-13.973 5.0757-17.067 5.0757-3.593 0-3.2936 1.4928-0.19961 1.5924 5.0901 0.19904 13.274-1.9905 18.664-4.4786 17.067-8.161 18.165-23.388-0.39922-23.886-20.161-0.69666-44.313 16.421-44.114 38.018 0.19961 9.7533 7.9844 15.028 18.664 15.028 17.865-0.19905 33.734-13.734 46.809-25.677 1.8963-1.5924 3.6928-3.2843 5.4893-5.0757-4.591 11.545-6.8866 22.293-5.7887 30.255 0.69864 5.7724 3.9922 8.4595 6.5871 10.649 0.49902 0.3981 1.5969 0 0.89824-1.0948-3.7926-4.4786-2.6947-17.914 2.4951-30.952 4.3914 8.7581 21.458 19.805 39.323 15.824zm-21.458-37.72c20.859-18.611 29.043-1.9905 15.769 8.161-6.8866 5.2748-20.56 9.2557-24.851 6.6681l-0.89824-0.49762c-0.49903-0.89571-1.0979-1.7914-1.4971-2.6871 3.4932-4.2795 7.4854-8.0614 11.478-11.644zm115.97-21.199c8.3836 0.89572 4.8904-9.2557-3.593-6.6681-3.7926 1.0948-7.4854 8.36-10.18 14.63-8.3836 12.44-22.356 29.459-32.137 38.416-8.683 7.4643-16.667 9.4548-6.8866-4.4786 3.9922-5.5733 9.0823-11.545 11.977-17.516 6.8866-15.028-7.7848-21.696-19.662-12.64-6.8866 5.2748-16.168 16.123-23.454 22.094-1.9961 1.5924-1.4971 3.981 0.49903 2.3886 5.7887-4.6776 15.969-15.426 24.752-21.696 7.2858-5.5733 10.18-1.9905 5.9883 2.6871-5.7887 6.6681-15.969 18.312-18.564 25.677-3.593 11.047 0.69863 15.924 7.9844 15.924 9.9805 0 24.851-15.526 34.832-27.867 3.2936-4.18 6.8866-9.0567 9.9805-13.734-8.683 16.82-17.765 33.838-29.043 49.264-15.969 21.696-35.93 38.018-54.893 38.018-13.673 0-25.45-9.2557-27.945-22.791-0.19961-1.4929-1.9961-1.7914-1.7965 0.19905 3.094 18.611 17.466 25.876 34.832 25.876 19.063 0 37.427-11.047 50.302-24.582 25.949-27.369 29.043-58.122 37.028-75.34 3.7926-7.8624 7.186-8.161 9.9805-7.8624zm105.6-26.269c3.7926-6.469 3.593-11.545-5.2897-11.545-6.6869 0.19905-18.863 4.8767-24.552 9.2557-1.2975 1.2938-0.69863 1.9905 0.89825 1.2938 1.0978-0.39809 2.3953-1.0948 3.593-1.5924 6.3875-3.4833 3.7926 3.7819 2.3953 6.469-7.5852 13.237-21.059 31.848-28.145 41.103-3.3934 4.5781-7.186 9.0567-10.879 12.938-6.7867 6.469-20.26 17.914-30.54 21.696-33.035 12.341 9.0823-43.79 12.575-48.369 7.7848-9.7533 25.251-26.772 30.54-35.331 3.7926-6.469 3.593-11.545-5.2897-11.545-6.6869 0.19905-18.863 4.8767-24.552 9.2557-1.2975 1.2938-0.69863 1.9905 0.89825 1.2938 1.0979-0.39809 2.3953-1.0948 3.593-1.5924 6.3875-3.4833 3.7926 3.7819 2.3953 6.469-7.5852 13.237-21.059 31.848-28.145 41.103-5.7887 7.7629-12.875 15.526-18.364 19.905-2.1957 1.7914-0.89824 3.4833 1.2975 1.9905 1.9961-1.2938 4.8904-4.18 8.184-7.5638-5.9883 11.943-10.879 28.762 4.8904 30.753 13.474 1.7914 29.442-11.843 39.822-21.995 1.0979-1.0948 2.3953-2.3886 3.6928-3.6824 0.29942-0.29857 0.59883-0.59715 0.89825-0.89572-5.9883 11.943-10.879 28.762 4.8904 30.753 17.266 2.3886 38.724-20.8 47.008-29.36 1.5969-1.5924 1.0979-4.379-1.5969-1.5924-4.8904 5.0757-21.458 20.104-33.435 24.582-33.035 12.341 9.0823-43.79 12.575-48.369 7.8846-9.9524 25.35-26.971 30.64-35.43z"
     id="path4397" />
  <path
     fill="url(#linearGradient-3)"
     d="m138.67 115.44c2.6947 2.1895 7.5852 0.89572 10.879-2.6871 3.4932-3.7819 3.9922-8.6586 1.2975-10.848-2.6947-2.1895-7.5852-0.89572-10.879 2.8862-3.4932 3.7819-3.9922 8.4595-1.2975 10.649zm-7.9844 7.0662c-0.69863 0-1.9961 1.2938-0.89825 1.7914 1.4971 0.49762 2.1957 1.7914 2.1957 3.5829-1.2975 7.4643-10.579 15.924-14.172 18.81-0.89824 0.89571 0.39922 2.8862 1.2975 2.1895 1.9961-1.5924 6.1879-4.8767 9.5813-9.2557-5.5891 12.44-16.568 28.563-20.759 34.236-16.368 22.592-41.219 43.392-58.286 43.392-13.673 0-25.251-9.2557-27.746-22.791-0.19961-1.4929-2.1957-1.7914-1.7965 0.19905 3.094 18.611 17.466 25.876 34.832 25.876 19.063 0 41.419-13.734 53.795-27.867 19.961-22.791 32.836-49.065 29.442-63.894-1.4971-5.5733-5.2897-6.469-7.4854-6.27zm122.56 49.662c5.2897-1.2938 9.5813-4.18 9.5813-8.7581 0-0.49762-0.89825-0.49762-0.89825 0 0 2.6871-3.094 4.9762-6.5871 5.4738-8.184 1.2938-24.352-8.2605-31.938-18.113 8.184 3.0852 24.851-1.3933 32.736-7.0662 7.2858-5.2748 10.18-11.047 10.679-15.725 0.89825-7.7628-7.5852-12.341-19.462-7.7628-7.5852 3.0852-16.667 9.7533-26.149 22.293 9.9805-16.421 29.642-43.293 48.904-60.411 23.454-20.8 37.028-16.82 15.969 5.2748-8.683 9.0567-25.051 20.8-36.329 25.876-3.4932 1.4929-1.7965 3.4833 0.69863 2.3886 11.977-5.2748 27.945-16.123 37.627-25.18 28.544-27.369 4.6908-47.97-26.848-19.009-21.458 19.606-35.431 40.307-47.607 67.079-4.1918 5.0757-7.2858 9.2557-11.078 12.44-0.49903 0.3981-0.79844 0.79619-1.0979 1.1943-10.48 8.9571-26.947 21.099-37.227 21.199-7.2858 0.19905-10.38-5.2748-9.0823-12.341 1.9961-11.047 13.474-24.085 23.255-28.563 12.675-5.7724 20.161 5.4738 3.4932 14.431-6.3875 3.2843-13.973 5.0757-17.067 5.0757-3.593 0-3.2936 1.4929-0.19961 1.5924 5.0901 0.19905 13.274-1.9905 18.664-4.4786 17.067-8.161 18.165-23.388-0.39922-23.886-20.161-0.69667-44.313 16.421-44.114 38.018 0.19961 9.7533 7.9844 15.028 18.664 15.028 17.865-0.19905 33.734-13.734 46.809-25.677 1.8963-1.5924 3.6928-3.2843 5.4893-5.0757-4.591 11.545-6.8866 22.293-5.7887 30.255 0.69864 5.7724 3.9922 8.4595 6.5871 10.649 0.49903 0.39809 1.5969 0 0.89825-1.0948-3.7926-4.4786-2.6947-17.914 2.4951-30.952 4.4912 8.7581 21.558 19.805 39.323 15.824zm-21.458-37.819c20.859-18.611 29.043-1.9905 15.769 8.161-6.8866 5.2748-20.56 9.2557-24.851 6.6681l-0.89824-0.49761c-0.49903-0.89572-1.0979-1.7914-1.4971-2.6872 3.4932-4.18 7.4854-8.0614 11.478-11.644zm115.97-21.099c8.3836 0.89571 4.8904-9.2557-3.593-6.6681-3.7926 1.0948-7.4854 8.36-10.18 14.63-8.3836 12.44-22.356 29.459-32.137 38.416-8.683 7.4643-16.667 9.4548-6.8866-4.4786 3.9922-5.5733 9.0823-11.545 11.977-17.516 6.8866-15.028-7.7848-21.696-19.662-12.64-6.8866 5.2748-16.168 16.123-23.454 22.094-1.9961 1.5924-1.4971 3.981 0.49903 2.3886 5.7887-4.6776 15.969-15.426 24.752-21.696 7.2858-5.5733 10.18-1.9905 5.9883 2.6871-5.7887 6.6681-15.969 18.312-18.564 25.677-3.593 11.047 0.69863 15.924 7.9844 15.924 9.9805 0 24.851-15.526 34.832-27.867 3.2936-4.18 6.8866-9.0567 9.9805-13.734-8.683 16.82-17.765 33.838-29.043 49.264-15.969 21.696-35.93 38.018-54.893 38.018-13.673 0-25.45-9.2557-27.945-22.791-0.19961-1.4929-1.9961-1.7914-1.7965 0.19904 3.094 18.611 17.466 25.876 34.832 25.876 19.063 0 37.427-11.047 50.302-24.582 25.949-27.369 29.043-58.122 37.028-75.34 3.7926-7.8624 7.2858-8.2605 9.9805-7.8624zm105.59-26.37c3.7926-6.469 3.593-11.545-5.2897-11.545-6.6869 0.19905-18.863 4.8767-24.552 9.2557-1.2975 1.2938-0.69863 1.9905 0.89825 1.2938 1.0978-0.39809 2.3953-1.0948 3.593-1.5924 6.3875-3.4833 3.7926 3.7819 2.3953 6.469-7.5852 13.237-21.059 31.848-28.145 41.103-3.3934 4.5781-7.186 9.0567-10.879 12.938-6.7868 6.469-20.26 17.914-30.54 21.696-33.035 12.341 9.0823-43.79 12.575-48.369 7.7848-9.7533 25.251-26.772 30.54-35.331 3.7926-6.469 3.593-11.545-5.2897-11.545-6.6869 0.19905-18.863 4.8767-24.552 9.2557-1.2975 1.2938-0.69863 1.9905 0.89825 1.2938 1.0978-0.3981 2.3953-1.0948 3.593-1.5924 6.3875-3.4833 3.7926 3.7819 2.3953 6.469-7.5852 13.237-21.059 31.848-28.145 41.103-5.7887 7.7628-12.875 15.526-18.364 19.905-2.1957 1.7914-0.89825 3.4833 1.2975 1.9905 1.9961-1.2938 4.8904-4.18 8.184-7.5638-5.9883 11.943-10.879 28.762 4.8904 30.753 13.474 1.7914 29.442-11.843 39.822-21.995 1.0979-1.0948 2.3953-2.3886 3.6928-3.6824l0.89825-0.89572c-5.9883 11.943-10.879 28.762 4.8904 30.753 17.266 2.3886 38.724-20.8 47.008-29.36 1.5969-1.5924 1.0979-4.379-1.5969-1.5924-4.8904 5.0757-21.458 20.104-33.435 24.582-33.035 12.341 9.0823-43.79 12.575-48.369 7.9844-9.9524 25.35-26.971 30.64-35.43z"
     id="path4399" />
</svg>
